<?xml version="1.0" encoding="UTF-8"?>
<!DOCTYPE svg PUBLIC "-//W3C//DTD SVG 1.1//EN" "http://www.w3.org/Graphics/SVG/1.1/DTD/svg11.dtd">
<svg xmlns="http://www.w3.org/2000/svg" version="1.1" viewBox="0 0 74.360000 86.580000" stroke="none">
	<g transform="scale(0.065000 0.065000)">
		<style>.caption { font: bold 190px sans-serif; fill: white; }</style>
		<rect x="0" y="0" width="1144" height="1332" rx="50" fill="#444444"/>
		<text x="90" y="204" class="caption">SCAN ME</text>
		<rect x="72" y="264" width="1000" height="1000" fill="#FFFFFF"/>
	</g>
	<g transform="translate(4.680000 17.160000)">
			<path d="M4,4h1v1h-1z M5,4h1v1h-1z M6,4h1v1h-1z M7,4h1v1h-1z M8,4h1v1h-1z M9,4h1v1h-1z M10,4h1v1h-1z M14,4h1v1h-1z M17,4h1v1h-1z M18,4h1v1h-1z M20,4h1v1h-1z M21,4h1v1h-1z M25,4h1v1h-1z M27,4h1v1h-1z M28,4h1v1h-1z M32,4h1v1h-1z M33,4h1v1h-1z M34,4h1v1h-1z M39,4h1v1h-1z M41,4h1v1h-1z M43,4h1v1h-1z M46,4h1v1h-1z M47,4h1v1h-1z M50,4h1v1h-1z M51,4h1v1h-1z M54,4h1v1h-1z M55,4h1v1h-1z M56,4h1v1h-1z M57,4h1v1h-1z M58,4h1v1h-1z M59,4h1v1h-1z M60,4h1v1h-1z M4,5h1v1h-1z M10,5h1v1h-1z M15,5h1v1h-1z M16,5h1v1h-1z M17,5h1v1h-1z M18,5h1v1h-1z M19,5h1v1h-1z M20,5h1v1h-1z M22,5h1v1h-1z M23,5h1v1h-1z M24,5h1v1h-1z M30,5h1v1h-1z M31,5h1v1h-1z M32,5h1v1h-1z M34,5h1v1h-1z M38,5h1v1h-1z M40,5h1v1h-1z M42,5h1v1h-1z M47,5h1v1h-1z M51,5h1v1h-1z M54,5h1v1h-1z M60,5h1v1h-1z M4,6h1v1h-1z M6,6h1v1h-1z M7,6h1v1h-1z M8,6h1v1h-1z M10,6h1v1h-1z M12,6h1v1h-1z M13,6h1v1h-1z M14,6h1v1h-1z M17,6h1v1h-1z M18,6h1v1h-1z M21,6h1v1h-1z M25,6h1v1h-1z M28,6h1v1h-1z M32,6h1v1h-1z M34,6h1v1h-1z M35,6h1v1h-1z M37,6h1v1h-1z M39,6h1v1h-1z M42,6h1v1h-1z M44,6h1v1h-1z M45,6h1v1h-1z M46,6h1v1h-1z M48,6h1v1h-1z M49,6h1v1h-1z M50,6h1v1h-1z M51,6h1v1h-1z M54,6h1v1h-1z M56,6h1v1h-1z M57,6h1v1h-1z M58,6h1v1h-1z M60,6h1v1h-1z M4,7h1v1h-1z M6,7h1v1h-1z M7,7h1v1h-1z M8,7h1v1h-1z M10,7h1v1h-1z M12,7h1v1h-1z M15,7h1v1h-1z M16,7h1v1h-1z M17,7h1v1h-1z M20,7h1v1h-1z M24,7h1v1h-1z M27,7h1v1h-1z M29,7h1v1h-1z M30,7h1v1h-1z M33,7h1v1h-1z M37,7h1v1h-1z M38,7h1v1h-1z M40,7h1v1h-1z M45,7h1v1h-1z M51,7h1v1h-1z M54,7h1v1h-1z M56,7h1v1h-1z M57,7h1v1h-1z M58,7h1v1h-1z M60,7h1v1h-1z M4,8h1v1h-1z M6,8h1v1h-1z M7,8h1v1h-1z M8,8h1v1h-1z M10,8h1v1h-1z M12,8h1v1h-1z M16,8h1v1h-1z M21,8h1v1h-1z M22,8h1v1h-1z M25,8h1v1h-1z M26,8h1v1h-1z M28,8h1v1h-1z M30,8h1v1h-1z M31,8h1v1h-1z M32,8h1v1h-1z M33,8h1v1h-1z M34,8h1v1h-1z M35,8h1v1h-1z M37,8h1v1h-1z M39,8h1v1h-1z M40,8h1v1h-1z M41,8h1v1h-1z M46,8h1v1h-1z M51,8h1v1h-1z M54,8h1v1h-1z M56,8h1v1h-1z M57,8h1v1h-1z M58,8h1v1h-1z M60,8h1v1h-1z M4,9h1v1h-1z M10,9h1v1h-1z M12,9h1v1h-1z M18,9h1v1h-1z M20,9h1v1h-1z M22,9h1v1h-1z M23,9h1v1h-1z M24,9h1v1h-1z M25,9h1v1h-1z M29,9h1v1h-1z M30,9h1v1h-1z M34,9h1v1h-1z M38,9h1v1h-1z M39,9h1v1h-1z M40,9h1v1h-1z M41,9h1v1h-1z M42,9h1v1h-1z M43,9h1v1h-1z M49,9h1v1h-1z M50,9h1v1h-1z M54,9h1v1h-1z M60,9h1v1h-1z M4,10h1v1h-1z M5,10h1v1h-1z M6,10h1v1h-1z M7,10h1v1h-1z M8,10h1v1h-1z M9,10h1v1h-1z M10,10h1v1h-1z M12,10h1v1h-1z M14,10h1v1h-1z M16,10h1v1h-1z M18,10h1v1h-1z M20,10h1v1h-1z M22,10h1v1h-1z M24,10h1v1h-1z M26,10h1v1h-1z M28,10h1v1h-1z M30,10h1v1h-1z M32,10h1v1h-1z M34,10h1v1h-1z M36,10h1v1h-1z M38,10h1v1h-1z M40,10h1v1h-1z M42,10h1v1h-1z M44,10h1v1h-1z M46,10h1v1h-1z M48,10h1v1h-1z M50,10h1v1h-1z M52,10h1v1h-1z M54,10h1v1h-1z M55,10h1v1h-1z M56,10h1v1h-1z M57,10h1v1h-1z M58,10h1v1h-1z M59,10h1v1h-1z M60,10h1v1h-1z M12,11h1v1h-1z M14,11h1v1h-1z M15,11h1v1h-1z M16,11h1v1h-1z M18,11h1v1h-1z M19,11h1v1h-1z M22,11h1v1h-1z M24,11h1v1h-1z M28,11h1v1h-1z M30,11h1v1h-1z M34,11h1v1h-1z M35,11h1v1h-1z M36,11h1v1h-1z M38,11h1v1h-1z M44,11h1v1h-1z M46,11h1v1h-1z M48,11h1v1h-1z M50,11h1v1h-1z M51,11h1v1h-1z M52,11h1v1h-1z M4,12h1v1h-1z M6,12h1v1h-1z M7,12h1v1h-1z M8,12h1v1h-1z M9,12h1v1h-1z M10,12h1v1h-1z M15,12h1v1h-1z M16,12h1v1h-1z M17,12h1v1h-1z M18,12h1v1h-1z M19,12h1v1h-1z M22,12h1v1h-1z M23,12h1v1h-1z M25,12h1v1h-1z M27,12h1v1h-1z M30,12h1v1h-1z M31,12h1v1h-1z M32,12h1v1h-1z M33,12h1v1h-1z M34,12h1v1h-1z M35,12h1v1h-1z M37,12h1v1h-1z M38,12h1v1h-1z M39,12h1v1h-1z M40,12h1v1h-1z M41,12h1v1h-1z M42,12h1v1h-1z M43,12h1v1h-1z M46,12h1v1h-1z M50,12h1v1h-1z M51,12h1v1h-1z M54,12h1v1h-1z M55,12h1v1h-1z M56,12h1v1h-1z M57,12h1v1h-1z M58,12h1v1h-1z M4,13h1v1h-1z M5,13h1v1h-1z M6,13h1v1h-1z M7,13h1v1h-1z M12,13h1v1h-1z M14,13h1v1h-1z M15,13h1v1h-1z M16,13h1v1h-1z M20,13h1v1h-1z M24,13h1v1h-1z M28,13h1v1h-1z M29,13h1v1h-1z M30,13h1v1h-1z M34,13h1v1h-1z M35,13h1v1h-1z M38,13h1v1h-1z M45,13h1v1h-1z M46,13h1v1h-1z M48,13h1v1h-1z M49,13h1v1h-1z M51,13h1v1h-1z M52,13h1v1h-1z M53,13h1v1h-1z M57,13h1v1h-1z M58,13h1v1h-1z M59,13h1v1h-1z M60,13h1v1h-1z M5,14h1v1h-1z M7,14h1v1h-1z M9,14h1v1h-1z M10,14h1v1h-1z M12,14h1v1h-1z M13,14h1v1h-1z M15,14h1v1h-1z M18,14h1v1h-1z M22,14h1v1h-1z M24,14h1v1h-1z M26,14h1v1h-1z M27,14h1v1h-1z M31,14h1v1h-1z M32,14h1v1h-1z M36,14h1v1h-1z M37,14h1v1h-1z M40,14h1v1h-1z M41,14h1v1h-1z M42,14h1v1h-1z M43,14h1v1h-1z M46,14h1v1h-1z M47,14h1v1h-1z M49,14h1v1h-1z M50,14h1v1h-1z M51,14h1v1h-1z M52,14h1v1h-1z M53,14h1v1h-1z M54,14h1v1h-1z M55,14h1v1h-1z M56,14h1v1h-1z M5,15h1v1h-1z M6,15h1v1h-1z M8,15h1v1h-1z M11,15h1v1h-1z M13,15h1v1h-1z M14,15h1v1h-1z M16,15h1v1h-1z M18,15h1v1h-1z M19,15h1v1h-1z M23,15h1v1h-1z M25,15h1v1h-1z M26,15h1v1h-1z M28,15h1v1h-1z M29,15h1v1h-1z M37,15h1v1h-1z M38,15h1v1h-1z M40,15h1v1h-1z M42,15h1v1h-1z M43,15h1v1h-1z M44,15h1v1h-1z M45,15h1v1h-1z M46,15h1v1h-1z M47,15h1v1h-1z M48,15h1v1h-1z M51,15h1v1h-1z M52,15h1v1h-1z M55,15h1v1h-1z M56,15h1v1h-1z M58,15h1v1h-1z M4,16h1v1h-1z M5,16h1v1h-1z M9,16h1v1h-1z M10,16h1v1h-1z M12,16h1v1h-1z M14,16h1v1h-1z M16,16h1v1h-1z M18,16h1v1h-1z M19,16h1v1h-1z M21,16h1v1h-1z M24,16h1v1h-1z M26,16h1v1h-1z M28,16h1v1h-1z M30,16h1v1h-1z M31,16h1v1h-1z M34,16h1v1h-1z M35,16h1v1h-1z M40,16h1v1h-1z M41,16h1v1h-1z M49,16h1v1h-1z M53,16h1v1h-1z M60,16h1v1h-1z M5,17h1v1h-1z M6,17h1v1h-1z M11,17h1v1h-1z M13,17h1v1h-1z M20,17h1v1h-1z M24,17h1v1h-1z M25,17h1v1h-1z M27,17h1v1h-1z M29,17h1v1h-1z M30,17h1v1h-1z M33,17h1v1h-1z M34,17h1v1h-1z M41,17h1v1h-1z M45,17h1v1h-1z M46,17h1v1h-1z M48,17h1v1h-1z M51,17h1v1h-1z M52,17h1v1h-1z M58,17h1v1h-1z M60,17h1v1h-1z M5,18h1v1h-1z M6,18h1v1h-1z M8,18h1v1h-1z M10,18h1v1h-1z M13,18h1v1h-1z M16,18h1v1h-1z M18,18h1v1h-1z M20,18h1v1h-1z M22,18h1v1h-1z M25,18h1v1h-1z M26,18h1v1h-1z M30,18h1v1h-1z M31,18h1v1h-1z M34,18h1v1h-1z M35,18h1v1h-1z M37,18h1v1h-1z M38,18h1v1h-1z M40,18h1v1h-1z M41,18h1v1h-1z M42,18h1v1h-1z M50,18h1v1h-1z M51,18h1v1h-1z M52,18h1v1h-1z M54,18h1v1h-1z M57,18h1v1h-1z M59,18h1v1h-1z M4,19h1v1h-1z M6,19h1v1h-1z M7,19h1v1h-1z M8,19h1v1h-1z M11,19h1v1h-1z M12,19h1v1h-1z M13,19h1v1h-1z M14,19h1v1h-1z M19,19h1v1h-1z M20,19h1v1h-1z M22,19h1v1h-1z M24,19h1v1h-1z M25,19h1v1h-1z M26,19h1v1h-1z M27,19h1v1h-1z M29,19h1v1h-1z M30,19h1v1h-1z M31,19h1v1h-1z M32,19h1v1h-1z M33,19h1v1h-1z M34,19h1v1h-1z M35,19h1v1h-1z M36,19h1v1h-1z M37,19h1v1h-1z M39,19h1v1h-1z M43,19h1v1h-1z M45,19h1v1h-1z M48,19h1v1h-1z M49,19h1v1h-1z M51,19h1v1h-1z M52,19h1v1h-1z M53,19h1v1h-1z M55,19h1v1h-1z M56,19h1v1h-1z M58,19h1v1h-1z M5,20h1v1h-1z M6,20h1v1h-1z M9,20h1v1h-1z M10,20h1v1h-1z M12,20h1v1h-1z M15,20h1v1h-1z M16,20h1v1h-1z M17,20h1v1h-1z M18,20h1v1h-1z M19,20h1v1h-1z M22,20h1v1h-1z M23,20h1v1h-1z M24,20h1v1h-1z M26,20h1v1h-1z M27,20h1v1h-1z M34,20h1v1h-1z M37,20h1v1h-1z M38,20h1v1h-1z M40,20h1v1h-1z M42,20h1v1h-1z M45,20h1v1h-1z M47,20h1v1h-1z M50,20h1v1h-1z M53,20h1v1h-1z M57,20h1v1h-1z M59,20h1v1h-1z M4,21h1v1h-1z M6,21h1v1h-1z M11,21h1v1h-1z M12,21h1v1h-1z M14,21h1v1h-1z M18,21h1v1h-1z M19,21h1v1h-1z M20,21h1v1h-1z M22,21h1v1h-1z M27,21h1v1h-1z M28,21h1v1h-1z M29,21h1v1h-1z M33,21h1v1h-1z M34,21h1v1h-1z M35,21h1v1h-1z M36,21h1v1h-1z M37,21h1v1h-1z M39,21h1v1h-1z M40,21h1v1h-1z M41,21h1v1h-1z M43,21h1v1h-1z M45,21h1v1h-1z M46,21h1v1h-1z M47,21h1v1h-1z M48,21h1v1h-1z M49,21h1v1h-1z M51,21h1v1h-1z M52,21h1v1h-1z M53,21h1v1h-1z M57,21h1v1h-1z M59,21h1v1h-1z M60,21h1v1h-1z M6,22h1v1h-1z M8,22h1v1h-1z M9,22h1v1h-1z M10,22h1v1h-1z M12,22h1v1h-1z M15,22h1v1h-1z M16,22h1v1h-1z M17,22h1v1h-1z M18,22h1v1h-1z M19,22h1v1h-1z M20,22h1v1h-1z M22,22h1v1h-1z M23,22h1v1h-1z M24,22h1v1h-1z M25,22h1v1h-1z M27,22h1v1h-1z M28,22h1v1h-1z M31,22h1v1h-1z M33,22h1v1h-1z M38,22h1v1h-1z M39,22h1v1h-1z M40,22h1v1h-1z M42,22h1v1h-1z M43,22h1v1h-1z M46,22h1v1h-1z M50,22h1v1h-1z M51,22h1v1h-1z M52,22h1v1h-1z M53,22h1v1h-1z M54,22h1v1h-1z M57,22h1v1h-1z M58,22h1v1h-1z M5,23h1v1h-1z M6,23h1v1h-1z M8,23h1v1h-1z M9,23h1v1h-1z M13,23h1v1h-1z M15,23h1v1h-1z M16,23h1v1h-1z M17,23h1v1h-1z M19,23h1v1h-1z M21,23h1v1h-1z M22,23h1v1h-1z M29,23h1v1h-1z M33,23h1v1h-1z M35,23h1v1h-1z M36,23h1v1h-1z M37,23h1v1h-1z M41,23h1v1h-1z M44,23h1v1h-1z M45,23h1v1h-1z M46,23h1v1h-1z M47,23h1v1h-1z M48,23h1v1h-1z M49,23h1v1h-1z M52,23h1v1h-1z M56,23h1v1h-1z M57,23h1v1h-1z M58,23h1v1h-1z M59,23h1v1h-1z M7,24h1v1h-1z M9,24h1v1h-1z M10,24h1v1h-1z M13,24h1v1h-1z M14,24h1v1h-1z M16,24h1v1h-1z M17,24h1v1h-1z M18,24h1v1h-1z M21,24h1v1h-1z M22,24h1v1h-1z M27,24h1v1h-1z M28,24h1v1h-1z M29,24h1v1h-1z M30,24h1v1h-1z M37,24h1v1h-1z M38,24h1v1h-1z M39,24h1v1h-1z M40,24h1v1h-1z M41,24h1v1h-1z M45,24h1v1h-1z M46,24h1v1h-1z M49,24h1v1h-1z M50,24h1v1h-1z M53,24h1v1h-1z M54,24h1v1h-1z M57,24h1v1h-1z M58,24h1v1h-1z M59,24h1v1h-1z M60,24h1v1h-1z M4,25h1v1h-1z M5,25h1v1h-1z M8,25h1v1h-1z M9,25h1v1h-1z M13,25h1v1h-1z M14,25h1v1h-1z M15,25h1v1h-1z M16,25h1v1h-1z M17,25h1v1h-1z M18,25h1v1h-1z M19,25h1v1h-1z M20,25h1v1h-1z M21,25h1v1h-1z M22,25h1v1h-1z M23,25h1v1h-1z M24,25h1v1h-1z M27,25h1v1h-1z M28,25h1v1h-1z M29,25h1v1h-1z M33,25h1v1h-1z M36,25h1v1h-1z M39,25h1v1h-1z M40,25h1v1h-1z M41,25h1v1h-1z M43,25h1v1h-1z M44,25h1v1h-1z M45,25h1v1h-1z M46,25h1v1h-1z M47,25h1v1h-1z M48,25h1v1h-1z M49,25h1v1h-1z M52,25h1v1h-1z M57,25h1v1h-1z M59,25h1v1h-1z M60,25h1v1h-1z M4,26h1v1h-1z M5,26h1v1h-1z M8,26h1v1h-1z M10,26h1v1h-1z M11,26h1v1h-1z M12,26h1v1h-1z M18,26h1v1h-1z M22,26h1v1h-1z M24,26h1v1h-1z M25,26h1v1h-1z M27,26h1v1h-1z M29,26h1v1h-1z M31,26h1v1h-1z M32,26h1v1h-1z M34,26h1v1h-1z M37,26h1v1h-1z M38,26h1v1h-1z M39,26h1v1h-1z M40,26h1v1h-1z M41,26h1v1h-1z M42,26h1v1h-1z M44,26h1v1h-1z M50,26h1v1h-1z M53,26h1v1h-1z M54,26h1v1h-1z M55,26h1v1h-1z M57,26h1v1h-1z M4,27h1v1h-1z M5,27h1v1h-1z M6,27h1v1h-1z M9,27h1v1h-1z M11,27h1v1h-1z M14,27h1v1h-1z M17,27h1v1h-1z M18,27h1v1h-1z M19,27h1v1h-1z M23,27h1v1h-1z M24,27h1v1h-1z M28,27h1v1h-1z M29,27h1v1h-1z M31,27h1v1h-1z M32,27h1v1h-1z M33,27h1v1h-1z M34,27h1v1h-1z M37,27h1v1h-1z M41,27h1v1h-1z M43,27h1v1h-1z M44,27h1v1h-1z M45,27h1v1h-1z M46,27h1v1h-1z M47,27h1v1h-1z M48,27h1v1h-1z M49,27h1v1h-1z M50,27h1v1h-1z M56,27h1v1h-1z M57,27h1v1h-1z M58,27h1v1h-1z M4,28h1v1h-1z M7,28h1v1h-1z M8,28h1v1h-1z M10,28h1v1h-1z M11,28h1v1h-1z M13,28h1v1h-1z M14,28h1v1h-1z M16,28h1v1h-1z M17,28h1v1h-1z M19,28h1v1h-1z M22,28h1v1h-1z M23,28h1v1h-1z M24,28h1v1h-1z M30,28h1v1h-1z M33,28h1v1h-1z M34,28h1v1h-1z M35,28h1v1h-1z M36,28h1v1h-1z M37,28h1v1h-1z M40,28h1v1h-1z M41,28h1v1h-1z M45,28h1v1h-1z M46,28h1v1h-1z M47,28h1v1h-1z M54,28h1v1h-1z M55,28h1v1h-1z M57,28h1v1h-1z M59,28h1v1h-1z M5,29h1v1h-1z M8,29h1v1h-1z M9,29h1v1h-1z M12,29h1v1h-1z M15,29h1v1h-1z M19,29h1v1h-1z M21,29h1v1h-1z M23,29h1v1h-1z M24,29h1v1h-1z M26,29h1v1h-1z M27,29h1v1h-1z M28,29h1v1h-1z M32,29h1v1h-1z M33,29h1v1h-1z M34,29h1v1h-1z M36,29h1v1h-1z M39,29h1v1h-1z M40,29h1v1h-1z M41,29h1v1h-1z M44,29h1v1h-1z M45,29h1v1h-1z M46,29h1v1h-1z M51,29h1v1h-1z M52,29h1v1h-1z M53,29h1v1h-1z M58,29h1v1h-1z M60,29h1v1h-1z M4,30h1v1h-1z M6,30h1v1h-1z M8,30h1v1h-1z M9,30h1v1h-1z M10,30h1v1h-1z M11,30h1v1h-1z M12,30h1v1h-1z M13,30h1v1h-1z M14,30h1v1h-1z M18,30h1v1h-1z M19,30h1v1h-1z M20,30h1v1h-1z M22,30h1v1h-1z M24,30h1v1h-1z M27,30h1v1h-1z M28,30h1v1h-1z M30,30h1v1h-1z M31,30h1v1h-1z M32,30h1v1h-1z M33,30h1v1h-1z M34,30h1v1h-1z M35,30h1v1h-1z M36,30h1v1h-1z M37,30h1v1h-1z M40,30h1v1h-1z M42,30h1v1h-1z M47,30h1v1h-1z M50,30h1v1h-1z M51,30h1v1h-1z M52,30h1v1h-1z M53,30h1v1h-1z M54,30h1v1h-1z M55,30h1v1h-1z M56,30h1v1h-1z M57,30h1v1h-1z M58,30h1v1h-1z M59,30h1v1h-1z M5,31h1v1h-1z M7,31h1v1h-1z M8,31h1v1h-1z M12,31h1v1h-1z M16,31h1v1h-1z M19,31h1v1h-1z M20,31h1v1h-1z M22,31h1v1h-1z M23,31h1v1h-1z M24,31h1v1h-1z M25,31h1v1h-1z M26,31h1v1h-1z M27,31h1v1h-1z M28,31h1v1h-1z M29,31h1v1h-1z M30,31h1v1h-1z M34,31h1v1h-1z M36,31h1v1h-1z M37,31h1v1h-1z M39,31h1v1h-1z M41,31h1v1h-1z M43,31h1v1h-1z M44,31h1v1h-1z M47,31h1v1h-1z M48,31h1v1h-1z M50,31h1v1h-1z M52,31h1v1h-1z M56,31h1v1h-1z M57,31h1v1h-1z M58,31h1v1h-1z M60,31h1v1h-1z M8,32h1v1h-1z M10,32h1v1h-1z M12,32h1v1h-1z M15,32h1v1h-1z M18,32h1v1h-1z M19,32h1v1h-1z M21,32h1v1h-1z M22,32h1v1h-1z M23,32h1v1h-1z M24,32h1v1h-1z M25,32h1v1h-1z M26,32h1v1h-1z M30,32h1v1h-1z M32,32h1v1h-1z M34,32h1v1h-1z M35,32h1v1h-1z M39,32h1v1h-1z M40,32h1v1h-1z M41,32h1v1h-1z M46,32h1v1h-1z M50,32h1v1h-1z M52,32h1v1h-1z M54,32h1v1h-1z M56,32h1v1h-1z M57,32h1v1h-1z M4,33h1v1h-1z M8,33h1v1h-1z M12,33h1v1h-1z M15,33h1v1h-1z M16,33h1v1h-1z M17,33h1v1h-1z M18,33h1v1h-1z M20,33h1v1h-1z M26,33h1v1h-1z M27,33h1v1h-1z M28,33h1v1h-1z M29,33h1v1h-1z M30,33h1v1h-1z M34,33h1v1h-1z M37,33h1v1h-1z M39,33h1v1h-1z M40,33h1v1h-1z M45,33h1v1h-1z M46,33h1v1h-1z M47,33h1v1h-1z M51,33h1v1h-1z M52,33h1v1h-1z M56,33h1v1h-1z M57,33h1v1h-1z M58,33h1v1h-1z M59,33h1v1h-1z M60,33h1v1h-1z M5,34h1v1h-1z M7,34h1v1h-1z M8,34h1v1h-1z M9,34h1v1h-1z M10,34h1v1h-1z M11,34h1v1h-1z M12,34h1v1h-1z M13,34h1v1h-1z M19,34h1v1h-1z M20,34h1v1h-1z M23,34h1v1h-1z M24,34h1v1h-1z M25,34h1v1h-1z M26,34h1v1h-1z M27,34h1v1h-1z M28,34h1v1h-1z M30,34h1v1h-1z M31,34h1v1h-1z M32,34h1v1h-1z M33,34h1v1h-1z M34,34h1v1h-1z M35,34h1v1h-1z M40,34h1v1h-1z M42,34h1v1h-1z M45,34h1v1h-1z M47,34h1v1h-1z M48,34h1v1h-1z M49,34h1v1h-1z M50,34h1v1h-1z M52,34h1v1h-1z M53,34h1v1h-1z M54,34h1v1h-1z M55,34h1v1h-1z M56,34h1v1h-1z M57,34h1v1h-1z M58,34h1v1h-1z M5,35h1v1h-1z M8,35h1v1h-1z M11,35h1v1h-1z M15,35h1v1h-1z M17,35h1v1h-1z M18,35h1v1h-1z M21,35h1v1h-1z M23,35h1v1h-1z M25,35h1v1h-1z M27,35h1v1h-1z M28,35h1v1h-1z M30,35h1v1h-1z M31,35h1v1h-1z M35,35h1v1h-1z M37,35h1v1h-1z M39,35h1v1h-1z M43,35h1v1h-1z M44,35h1v1h-1z M46,35h1v1h-1z M47,35h1v1h-1z M48,35h1v1h-1z M49,35h1v1h-1z M50,35h1v1h-1z M51,35h1v1h-1z M54,35h1v1h-1z M55,35h1v1h-1z M57,35h1v1h-1z M58,35h1v1h-1z M59,35h1v1h-1z M5,36h1v1h-1z M6,36h1v1h-1z M8,36h1v1h-1z M9,36h1v1h-1z M10,36h1v1h-1z M11,36h1v1h-1z M13,36h1v1h-1z M14,36h1v1h-1z M18,36h1v1h-1z M20,36h1v1h-1z M21,36h1v1h-1z M25,36h1v1h-1z M27,36h1v1h-1z M28,36h1v1h-1z M29,36h1v1h-1z M30,36h1v1h-1z M31,36h1v1h-1z M32,36h1v1h-1z M33,36h1v1h-1z M34,36h1v1h-1z M35,36h1v1h-1z M40,36h1v1h-1z M43,36h1v1h-1z M45,36h1v1h-1z M49,36h1v1h-1z M50,36h1v1h-1z M55,36h1v1h-1z M56,36h1v1h-1z M59,36h1v1h-1z M7,37h1v1h-1z M8,37h1v1h-1z M11,37h1v1h-1z M17,37h1v1h-1z M18,37h1v1h-1z M19,37h1v1h-1z M20,37h1v1h-1z M21,37h1v1h-1z M23,37h1v1h-1z M28,37h1v1h-1z M30,37h1v1h-1z M33,37h1v1h-1z M34,37h1v1h-1z M35,37h1v1h-1z M39,37h1v1h-1z M40,37h1v1h-1z M43,37h1v1h-1z M44,37h1v1h-1z M45,37h1v1h-1z M46,37h1v1h-1z M47,37h1v1h-1z M53,37h1v1h-1z M54,37h1v1h-1z M57,37h1v1h-1z M58,37h1v1h-1z M4,38h1v1h-1z M5,38h1v1h-1z M7,38h1v1h-1z M10,38h1v1h-1z M11,38h1v1h-1z M13,38h1v1h-1z M16,38h1v1h-1z M17,38h1v1h-1z M20,38h1v1h-1z M21,38h1v1h-1z M23,38h1v1h-1z M25,38h1v1h-1z M26,38h1v1h-1z M27,38h1v1h-1z M28,38h1v1h-1z M29,38h1v1h-1z M30,38h1v1h-1z M31,38h1v1h-1z M33,38h1v1h-1z M34,38h1v1h-1z M35,38h1v1h-1z M36,38h1v1h-1z M37,38h1v1h-1z M38,38h1v1h-1z M39,38h1v1h-1z M40,38h1v1h-1z M41,38h1v1h-1z M42,38h1v1h-1z M43,38h1v1h-1z M47,38h1v1h-1z M50,38h1v1h-1z M52,38h1v1h-1z M53,38h1v1h-1z M55,38h1v1h-1z M56,38h1v1h-1z M58,38h1v1h-1z M59,38h1v1h-1z M60,38h1v1h-1z M5,39h1v1h-1z M6,39h1v1h-1z M8,39h1v1h-1z M9,39h1v1h-1z M11,39h1v1h-1z M12,39h1v1h-1z M14,39h1v1h-1z M15,39h1v1h-1z M18,39h1v1h-1z M19,39h1v1h-1z M20,39h1v1h-1z M24,39h1v1h-1z M28,39h1v1h-1z M36,39h1v1h-1z M37,39h1v1h-1z M42,39h1v1h-1z M44,39h1v1h-1z M46,39h1v1h-1z M47,39h1v1h-1z M48,39h1v1h-1z M49,39h1v1h-1z M51,39h1v1h-1z M52,39h1v1h-1z M53,39h1v1h-1z M54,39h1v1h-1z M58,39h1v1h-1z M8,40h1v1h-1z M10,40h1v1h-1z M13,40h1v1h-1z M14,40h1v1h-1z M15,40h1v1h-1z M17,40h1v1h-1z M23,40h1v1h-1z M25,40h1v1h-1z M26,40h1v1h-1z M31,40h1v1h-1z M35,40h1v1h-1z M37,40h1v1h-1z M40,40h1v1h-1z M41,40h1v1h-1z M43,40h1v1h-1z M45,40h1v1h-1z M46,40h1v1h-1z M50,40h1v1h-1z M52,40h1v1h-1z M53,40h1v1h-1z M55,40h1v1h-1z M56,40h1v1h-1z M57,40h1v1h-1z M6,41h1v1h-1z M8,41h1v1h-1z M9,41h1v1h-1z M12,41h1v1h-1z M14,41h1v1h-1z M16,41h1v1h-1z M18,41h1v1h-1z M20,41h1v1h-1z M21,41h1v1h-1z M22,41h1v1h-1z M26,41h1v1h-1z M27,41h1v1h-1z M28,41h1v1h-1z M30,41h1v1h-1z M32,41h1v1h-1z M33,41h1v1h-1z M34,41h1v1h-1z M35,41h1v1h-1z M41,41h1v1h-1z M43,41h1v1h-1z M44,41h1v1h-1z M46,41h1v1h-1z M48,41h1v1h-1z M49,41h1v1h-1z M51,41h1v1h-1z M52,41h1v1h-1z M54,41h1v1h-1z M55,41h1v1h-1z M58,41h1v1h-1z M60,41h1v1h-1z M6,42h1v1h-1z M9,42h1v1h-1z M10,42h1v1h-1z M13,42h1v1h-1z M16,42h1v1h-1z M18,42h1v1h-1z M22,42h1v1h-1z M24,42h1v1h-1z M26,42h1v1h-1z M31,42h1v1h-1z M32,42h1v1h-1z M33,42h1v1h-1z M34,42h1v1h-1z M35,42h1v1h-1z M39,42h1v1h-1z M42,42h1v1h-1z M43,42h1v1h-1z M49,42h1v1h-1z M50,42h1v1h-1z M52,42h1v1h-1z M53,42h1v1h-1z M56,42h1v1h-1z M57,42h1v1h-1z M59,42h1v1h-1z M6,43h1v1h-1z M13,43h1v1h-1z M15,43h1v1h-1z M16,43h1v1h-1z M17,43h1v1h-1z M18,43h1v1h-1z M19,43h1v1h-1z M20,43h1v1h-1z M21,43h1v1h-1z M25,43h1v1h-1z M26,43h1v1h-1z M28,43h1v1h-1z M29,43h1v1h-1z M30,43h1v1h-1z M32,43h1v1h-1z M33,43h1v1h-1z M34,43h1v1h-1z M35,43h1v1h-1z M36,43h1v1h-1z M43,43h1v1h-1z M44,43h1v1h-1z M46,43h1v1h-1z M48,43h1v1h-1z M50,43h1v1h-1z M51,43h1v1h-1z M54,43h1v1h-1z M55,43h1v1h-1z M57,43h1v1h-1z M58,43h1v1h-1z M4,44h1v1h-1z M7,44h1v1h-1z M10,44h1v1h-1z M12,44h1v1h-1z M17,44h1v1h-1z M21,44h1v1h-1z M22,44h1v1h-1z M28,44h1v1h-1z M31,44h1v1h-1z M32,44h1v1h-1z M39,44h1v1h-1z M40,44h1v1h-1z M42,44h1v1h-1z M47,44h1v1h-1z M53,44h1v1h-1z M55,44h1v1h-1z M56,44h1v1h-1z M58,44h1v1h-1z M60,44h1v1h-1z M7,45h1v1h-1z M9,45h1v1h-1z M14,45h1v1h-1z M15,45h1v1h-1z M16,45h1v1h-1z M17,45h1v1h-1z M22,45h1v1h-1z M25,45h1v1h-1z M27,45h1v1h-1z M28,45h1v1h-1z M30,45h1v1h-1z M33,45h1v1h-1z M34,45h1v1h-1z M35,45h1v1h-1z M39,45h1v1h-1z M46,45h1v1h-1z M47,45h1v1h-1z M55,45h1v1h-1z M57,45h1v1h-1z M58,45h1v1h-1z M59,45h1v1h-1z M5,46h1v1h-1z M6,46h1v1h-1z M7,46h1v1h-1z M9,46h1v1h-1z M10,46h1v1h-1z M11,46h1v1h-1z M13,46h1v1h-1z M14,46h1v1h-1z M15,46h1v1h-1z M18,46h1v1h-1z M19,46h1v1h-1z M20,46h1v1h-1z M21,46h1v1h-1z M22,46h1v1h-1z M23,46h1v1h-1z M25,46h1v1h-1z M27,46h1v1h-1z M28,46h1v1h-1z M29,46h1v1h-1z M31,46h1v1h-1z M32,46h1v1h-1z M34,46h1v1h-1z M35,46h1v1h-1z M38,46h1v1h-1z M40,46h1v1h-1z M41,46h1v1h-1z M42,46h1v1h-1z M45,46h1v1h-1z M47,46h1v1h-1z M49,46h1v1h-1z M53,46h1v1h-1z M55,46h1v1h-1z M56,46h1v1h-1z M58,46h1v1h-1z M59,46h1v1h-1z M4,47h1v1h-1z M8,47h1v1h-1z M13,47h1v1h-1z M14,47h1v1h-1z M15,47h1v1h-1z M16,47h1v1h-1z M20,47h1v1h-1z M21,47h1v1h-1z M23,47h1v1h-1z M24,47h1v1h-1z M26,47h1v1h-1z M27,47h1v1h-1z M28,47h1v1h-1z M30,47h1v1h-1z M35,47h1v1h-1z M39,47h1v1h-1z M41,47h1v1h-1z M42,47h1v1h-1z M43,47h1v1h-1z M44,47h1v1h-1z M46,47h1v1h-1z M47,47h1v1h-1z M48,47h1v1h-1z M51,47h1v1h-1z M52,47h1v1h-1z M54,47h1v1h-1z M57,47h1v1h-1z M58,47h1v1h-1z M59,47h1v1h-1z M4,48h1v1h-1z M8,48h1v1h-1z M10,48h1v1h-1z M12,48h1v1h-1z M16,48h1v1h-1z M18,48h1v1h-1z M19,48h1v1h-1z M20,48h1v1h-1z M24,48h1v1h-1z M25,48h1v1h-1z M29,48h1v1h-1z M31,48h1v1h-1z M34,48h1v1h-1z M40,48h1v1h-1z M42,48h1v1h-1z M45,48h1v1h-1z M47,48h1v1h-1z M49,48h1v1h-1z M52,48h1v1h-1z M55,48h1v1h-1z M56,48h1v1h-1z M57,48h1v1h-1z M59,48h1v1h-1z M4,49h1v1h-1z M6,49h1v1h-1z M8,49h1v1h-1z M11,49h1v1h-1z M13,49h1v1h-1z M16,49h1v1h-1z M17,49h1v1h-1z M18,49h1v1h-1z M19,49h1v1h-1z M20,49h1v1h-1z M23,49h1v1h-1z M24,49h1v1h-1z M25,49h1v1h-1z M26,49h1v1h-1z M28,49h1v1h-1z M30,49h1v1h-1z M33,49h1v1h-1z M34,49h1v1h-1z M35,49h1v1h-1z M39,49h1v1h-1z M40,49h1v1h-1z M41,49h1v1h-1z M43,49h1v1h-1z M44,49h1v1h-1z M46,49h1v1h-1z M47,49h1v1h-1z M48,49h1v1h-1z M52,49h1v1h-1z M53,49h1v1h-1z M54,49h1v1h-1z M58,49h1v1h-1z M59,49h1v1h-1z M60,49h1v1h-1z M4,50h1v1h-1z M6,50h1v1h-1z M9,50h1v1h-1z M10,50h1v1h-1z M11,50h1v1h-1z M13,50h1v1h-1z M14,50h1v1h-1z M18,50h1v1h-1z M20,50h1v1h-1z M21,50h1v1h-1z M22,50h1v1h-1z M23,50h1v1h-1z M24,50h1v1h-1z M25,50h1v1h-1z M27,50h1v1h-1z M29,50h1v1h-1z M32,50h1v1h-1z M34,50h1v1h-1z M37,50h1v1h-1z M38,50h1v1h-1z M42,50h1v1h-1z M44,50h1v1h-1z M45,50h1v1h-1z M47,50h1v1h-1z M48,50h1v1h-1z M50,50h1v1h-1z M51,50h1v1h-1z M52,50h1v1h-1z M55,50h1v1h-1z M59,50h1v1h-1z M4,51h1v1h-1z M5,51h1v1h-1z M6,51h1v1h-1z M7,51h1v1h-1z M8,51h1v1h-1z M11,51h1v1h-1z M13,51h1v1h-1z M14,51h1v1h-1z M15,51h1v1h-1z M16,51h1v1h-1z M17,51h1v1h-1z M26,51h1v1h-1z M28,51h1v1h-1z M30,51h1v1h-1z M31,51h1v1h-1z M33,51h1v1h-1z M34,51h1v1h-1z M35,51h1v1h-1z M36,51h1v1h-1z M38,51h1v1h-1z M41,51h1v1h-1z M43,51h1v1h-1z M44,51h1v1h-1z M45,51h1v1h-1z M46,51h1v1h-1z M47,51h1v1h-1z M48,51h1v1h-1z M49,51h1v1h-1z M50,51h1v1h-1z M51,51h1v1h-1z M54,51h1v1h-1z M55,51h1v1h-1z M57,51h1v1h-1z M58,51h1v1h-1z M60,51h1v1h-1z M10,52h1v1h-1z M13,52h1v1h-1z M16,52h1v1h-1z M17,52h1v1h-1z M19,52h1v1h-1z M20,52h1v1h-1z M22,52h1v1h-1z M24,52h1v1h-1z M30,52h1v1h-1z M31,52h1v1h-1z M32,52h1v1h-1z M33,52h1v1h-1z M34,52h1v1h-1z M35,52h1v1h-1z M37,52h1v1h-1z M38,52h1v1h-1z M39,52h1v1h-1z M40,52h1v1h-1z M41,52h1v1h-1z M43,52h1v1h-1z M45,52h1v1h-1z M46,52h1v1h-1z M49,52h1v1h-1z M52,52h1v1h-1z M53,52h1v1h-1z M54,52h1v1h-1z M55,52h1v1h-1z M56,52h1v1h-1z M57,52h1v1h-1z M59,52h1v1h-1z M12,53h1v1h-1z M13,53h1v1h-1z M15,53h1v1h-1z M17,53h1v1h-1z M19,53h1v1h-1z M20,53h1v1h-1z M23,53h1v1h-1z M24,53h1v1h-1z M25,53h1v1h-1z M28,53h1v1h-1z M29,53h1v1h-1z M30,53h1v1h-1z M34,53h1v1h-1z M36,53h1v1h-1z M38,53h1v1h-1z M39,53h1v1h-1z M44,53h1v1h-1z M45,53h1v1h-1z M46,53h1v1h-1z M47,53h1v1h-1z M48,53h1v1h-1z M52,53h1v1h-1z M56,53h1v1h-1z M58,53h1v1h-1z M60,53h1v1h-1z M4,54h1v1h-1z M5,54h1v1h-1z M6,54h1v1h-1z M7,54h1v1h-1z M8,54h1v1h-1z M9,54h1v1h-1z M10,54h1v1h-1z M14,54h1v1h-1z M15,54h1v1h-1z M17,54h1v1h-1z M21,54h1v1h-1z M22,54h1v1h-1z M26,54h1v1h-1z M29,54h1v1h-1z M30,54h1v1h-1z M32,54h1v1h-1z M34,54h1v1h-1z M35,54h1v1h-1z M36,54h1v1h-1z M37,54h1v1h-1z M39,54h1v1h-1z M40,54h1v1h-1z M41,54h1v1h-1z M42,54h1v1h-1z M43,54h1v1h-1z M49,54h1v1h-1z M50,54h1v1h-1z M52,54h1v1h-1z M54,54h1v1h-1z M56,54h1v1h-1z M57,54h1v1h-1z M4,55h1v1h-1z M10,55h1v1h-1z M12,55h1v1h-1z M13,55h1v1h-1z M14,55h1v1h-1z M15,55h1v1h-1z M18,55h1v1h-1z M22,55h1v1h-1z M23,55h1v1h-1z M24,55h1v1h-1z M25,55h1v1h-1z M26,55h1v1h-1z M30,55h1v1h-1z M34,55h1v1h-1z M35,55h1v1h-1z M36,55h1v1h-1z M38,55h1v1h-1z M39,55h1v1h-1z M41,55h1v1h-1z M42,55h1v1h-1z M44,55h1v1h-1z M45,55h1v1h-1z M48,55h1v1h-1z M51,55h1v1h-1z M52,55h1v1h-1z M56,55h1v1h-1z M58,55h1v1h-1z M59,55h1v1h-1z M60,55h1v1h-1z M4,56h1v1h-1z M6,56h1v1h-1z M7,56h1v1h-1z M8,56h1v1h-1z M10,56h1v1h-1z M12,56h1v1h-1z M13,56h1v1h-1z M14,56h1v1h-1z M15,56h1v1h-1z M16,56h1v1h-1z M18,56h1v1h-1z M19,56h1v1h-1z M20,56h1v1h-1z M21,56h1v1h-1z M28,56h1v1h-1z M29,56h1v1h-1z M30,56h1v1h-1z M31,56h1v1h-1z M32,56h1v1h-1z M33,56h1v1h-1z M34,56h1v1h-1z M37,56h1v1h-1z M38,56h1v1h-1z M40,56h1v1h-1z M41,56h1v1h-1z M42,56h1v1h-1z M45,56h1v1h-1z M49,56h1v1h-1z M52,56h1v1h-1z M53,56h1v1h-1z M54,56h1v1h-1z M55,56h1v1h-1z M56,56h1v1h-1z M57,56h1v1h-1z M4,57h1v1h-1z M6,57h1v1h-1z M7,57h1v1h-1z M8,57h1v1h-1z M10,57h1v1h-1z M12,57h1v1h-1z M13,57h1v1h-1z M17,57h1v1h-1z M21,57h1v1h-1z M24,57h1v1h-1z M25,57h1v1h-1z M27,57h1v1h-1z M31,57h1v1h-1z M32,57h1v1h-1z M33,57h1v1h-1z M37,57h1v1h-1z M39,57h1v1h-1z M40,57h1v1h-1z M41,57h1v1h-1z M45,57h1v1h-1z M46,57h1v1h-1z M47,57h1v1h-1z M49,57h1v1h-1z M51,57h1v1h-1z M55,57h1v1h-1z M57,57h1v1h-1z M58,57h1v1h-1z M4,58h1v1h-1z M6,58h1v1h-1z M7,58h1v1h-1z M8,58h1v1h-1z M10,58h1v1h-1z M12,58h1v1h-1z M19,58h1v1h-1z M20,58h1v1h-1z M24,58h1v1h-1z M25,58h1v1h-1z M29,58h1v1h-1z M30,58h1v1h-1z M35,58h1v1h-1z M37,58h1v1h-1z M38,58h1v1h-1z M39,58h1v1h-1z M41,58h1v1h-1z M42,58h1v1h-1z M43,58h1v1h-1z M45,58h1v1h-1z M49,58h1v1h-1z M50,58h1v1h-1z M51,58h1v1h-1z M52,58h1v1h-1z M53,58h1v1h-1z M57,58h1v1h-1z M58,58h1v1h-1z M4,59h1v1h-1z M10,59h1v1h-1z M13,59h1v1h-1z M15,59h1v1h-1z M16,59h1v1h-1z M20,59h1v1h-1z M21,59h1v1h-1z M22,59h1v1h-1z M27,59h1v1h-1z M29,59h1v1h-1z M30,59h1v1h-1z M31,59h1v1h-1z M32,59h1v1h-1z M33,59h1v1h-1z M34,59h1v1h-1z M36,59h1v1h-1z M44,59h1v1h-1z M45,59h1v1h-1z M46,59h1v1h-1z M48,59h1v1h-1z M51,59h1v1h-1z M53,59h1v1h-1z M55,59h1v1h-1z M58,59h1v1h-1z M4,60h1v1h-1z M5,60h1v1h-1z M6,60h1v1h-1z M7,60h1v1h-1z M8,60h1v1h-1z M9,60h1v1h-1z M10,60h1v1h-1z M12,60h1v1h-1z M13,60h1v1h-1z M15,60h1v1h-1z M19,60h1v1h-1z M21,60h1v1h-1z M25,60h1v1h-1z M26,60h1v1h-1z M27,60h1v1h-1z M29,60h1v1h-1z M31,60h1v1h-1z M33,60h1v1h-1z M37,60h1v1h-1z M39,60h1v1h-1z M40,60h1v1h-1z M41,60h1v1h-1z M43,60h1v1h-1z M45,60h1v1h-1z M46,60h1v1h-1z M47,60h1v1h-1z M52,60h1v1h-1z M53,60h1v1h-1z M54,60h1v1h-1z M55,60h1v1h-1z M56,60h1v1h-1z M59,60h1v1h-1z" fill="#000000"/>
	</g>
</svg>