<?xml version="1.0" encoding="UTF-8"?>
<!DOCTYPE svg PUBLIC "-//W3C//DTD SVG 1.1//EN" "http://www.w3.org/Graphics/SVG/1.1/DTD/svg11.dtd">
<svg xmlns="http://www.w3.org/2000/svg" version="1.1" viewBox="0 0 57.000000 57.000000" stroke="none">
	<rect width="100%" height="100%" fill="#FFFFFF"/>
	<g transform="translate(0.000000 0.000000)">
			<path d="M4,4h1v1h-1z M5,4h1v1h-1z M6,4h1v1h-1z M7,4h1v1h-1z M8,4h1v1h-1z M9,4h1v1h-1z M10,4h1v1h-1z M14,4h1v1h-1z M16,4h1v1h-1z M17,4h1v1h-1z M18,4h1v1h-1z M20,4h1v1h-1z M21,4h1v1h-1z M29,4h1v1h-1z M30,4h1v1h-1z M31,4h1v1h-1z M32,4h1v1h-1z M33,4h1v1h-1z M36,4h1v1h-1z M38,4h1v1h-1z M41,4h1v1h-1z M44,4h1v1h-1z M46,4h1v1h-1z M47,4h1v1h-1z M48,4h1v1h-1z M49,4h1v1h-1z M50,4h1v1h-1z M51,4h1v1h-1z M52,4h1v1h-1z M4,5h1v1h-1z M10,5h1v1h-1z M13,5h1v1h-1z M15,5h1v1h-1z M16,5h1v1h-1z M17,5h1v1h-1z M18,5h1v1h-1z M21,5h1v1h-1z M23,5h1v1h-1z M25,5h1v1h-1z M26,5h1v1h-1z M27,5h1v1h-1z M32,5h1v1h-1z M34,5h1v1h-1z M35,5h1v1h-1z M36,5h1v1h-1z M37,5h1v1h-1z M39,5h1v1h-1z M41,5h1v1h-1z M42,5h1v1h-1z M43,5h1v1h-1z M44,5h1v1h-1z M46,5h1v1h-1z M52,5h1v1h-1z M4,6h1v1h-1z M6,6h1v1h-1z M7,6h1v1h-1z M8,6h1v1h-1z M10,6h1v1h-1z M12,6h1v1h-1z M15,6h1v1h-1z M19,6h1v1h-1z M22,6h1v1h-1z M23,6h1v1h-1z M24,6h1v1h-1z M28,6h1v1h-1z M29,6h1v1h-1z M30,6h1v1h-1z M32,6h1v1h-1z M34,6h1v1h-1z M36,6h1v1h-1z M37,6h1v1h-1z M43,6h1v1h-1z M44,6h1v1h-1z M46,6h1v1h-1z M48,6h1v1h-1z M49,6h1v1h-1z M50,6h1v1h-1z M52,6h1v1h-1z M4,7h1v1h-1z M6,7h1v1h-1z M7,7h1v1h-1z M8,7h1v1h-1z M10,7h1v1h-1z M12,7h1v1h-1z M14,7h1v1h-1z M16,7h1v1h-1z M18,7h1v1h-1z M19,7h1v1h-1z M20,7h1v1h-1z M21,7h1v1h-1z M25,7h1v1h-1z M27,7h1v1h-1z M29,7h1v1h-1z M30,7h1v1h-1z M31,7h1v1h-1z M34,7h1v1h-1z M35,7h1v1h-1z M39,7h1v1h-1z M40,7h1v1h-1z M41,7h1v1h-1z M43,7h1v1h-1z M46,7h1v1h-1z M48,7h1v1h-1z M49,7h1v1h-1z M50,7h1v1h-1z M52,7h1v1h-1z M4,8h1v1h-1z M6,8h1v1h-1z M7,8h1v1h-1z M8,8h1v1h-1z M10,8h1v1h-1z M12,8h1v1h-1z M15,8h1v1h-1z M18,8h1v1h-1z M23,8h1v1h-1z M24,8h1v1h-1z M25,8h1v1h-1z M26,8h1v1h-1z M27,8h1v1h-1z M28,8h1v1h-1z M29,8h1v1h-1z M30,8h1v1h-1z M33,8h1v1h-1z M34,8h1v1h-1z M39,8h1v1h-1z M40,8h1v1h-1z M41,8h1v1h-1z M46,8h1v1h-1z M48,8h1v1h-1z M49,8h1v1h-1z M50,8h1v1h-1z M52,8h1v1h-1z M4,9h1v1h-1z M10,9h1v1h-1z M12,9h1v1h-1z M14,9h1v1h-1z M17,9h1v1h-1z M18,9h1v1h-1z M21,9h1v1h-1z M24,9h1v1h-1z M25,9h1v1h-1z M26,9h1v1h-1z M30,9h1v1h-1z M31,9h1v1h-1z M34,9h1v1h-1z M35,9h1v1h-1z M37,9h1v1h-1z M40,9h1v1h-1z M41,9h1v1h-1z M42,9h1v1h-1z M46,9h1v1h-1z M52,9h1v1h-1z M4,10h1v1h-1z M5,10h1v1h-1z M6,10h1v1h-1z M7,10h1v1h-1z M8,10h1v1h-1z M9,10h1v1h-1z M10,10h1v1h-1z M12,10h1v1h-1z M14,10h1v1h-1z M16,10h1v1h-1z M18,10h1v1h-1z M20,10h1v1h-1z M22,10h1v1h-1z M24,10h1v1h-1z M26,10h1v1h-1z M28,10h1v1h-1z M30,10h1v1h-1z M32,10h1v1h-1z M34,10h1v1h-1z M36,10h1v1h-1z M38,10h1v1h-1z M40,10h1v1h-1z M42,10h1v1h-1z M44,10h1v1h-1z M46,10h1v1h-1z M47,10h1v1h-1z M48,10h1v1h-1z M49,10h1v1h-1z M50,10h1v1h-1z M51,10h1v1h-1z M52,10h1v1h-1z M12,11h1v1h-1z M13,11h1v1h-1z M14,11h1v1h-1z M17,11h1v1h-1z M19,11h1v1h-1z M20,11h1v1h-1z M21,11h1v1h-1z M23,11h1v1h-1z M24,11h1v1h-1z M26,11h1v1h-1z M30,11h1v1h-1z M39,11h1v1h-1z M41,11h1v1h-1z M42,11h1v1h-1z M44,11h1v1h-1z M4,12h1v1h-1z M6,12h1v1h-1z M7,12h1v1h-1z M8,12h1v1h-1z M9,12h1v1h-1z M10,12h1v1h-1z M13,12h1v1h-1z M14,12h1v1h-1z M15,12h1v1h-1z M17,12h1v1h-1z M18,12h1v1h-1z M20,12h1v1h-1z M21,12h1v1h-1z M24,12h1v1h-1z M26,12h1v1h-1z M27,12h1v1h-1z M28,12h1v1h-1z M29,12h1v1h-1z M30,12h1v1h-1z M33,12h1v1h-1z M34,12h1v1h-1z M35,12h1v1h-1z M37,12h1v1h-1z M39,12h1v1h-1z M40,12h1v1h-1z M41,12h1v1h-1z M42,12h1v1h-1z M43,12h1v1h-1z M46,12h1v1h-1z M47,12h1v1h-1z M48,12h1v1h-1z M49,12h1v1h-1z M50,12h1v1h-1z M4,13h1v1h-1z M5,13h1v1h-1z M6,13h1v1h-1z M11,13h1v1h-1z M12,13h1v1h-1z M16,13h1v1h-1z M17,13h1v1h-1z M18,13h1v1h-1z M19,13h1v1h-1z M20,13h1v1h-1z M21,13h1v1h-1z M29,13h1v1h-1z M32,13h1v1h-1z M33,13h1v1h-1z M34,13h1v1h-1z M35,13h1v1h-1z M36,13h1v1h-1z M37,13h1v1h-1z M39,13h1v1h-1z M40,13h1v1h-1z M41,13h1v1h-1z M44,13h1v1h-1z M46,13h1v1h-1z M5,14h1v1h-1z M6,14h1v1h-1z M7,14h1v1h-1z M10,14h1v1h-1z M12,14h1v1h-1z M19,14h1v1h-1z M20,14h1v1h-1z M21,14h1v1h-1z M24,14h1v1h-1z M26,14h1v1h-1z M27,14h1v1h-1z M30,14h1v1h-1z M31,14h1v1h-1z M33,14h1v1h-1z M34,14h1v1h-1z M38,14h1v1h-1z M39,14h1v1h-1z M40,14h1v1h-1z M41,14h1v1h-1z M42,14h1v1h-1z M43,14h1v1h-1z M44,14h1v1h-1z M45,14h1v1h-1z M47,14h1v1h-1z M51,14h1v1h-1z M52,14h1v1h-1z M7,15h1v1h-1z M8,15h1v1h-1z M9,15h1v1h-1z M12,15h1v1h-1z M14,15h1v1h-1z M17,15h1v1h-1z M18,15h1v1h-1z M20,15h1v1h-1z M21,15h1v1h-1z M23,15h1v1h-1z M31,15h1v1h-1z M32,15h1v1h-1z M35,15h1v1h-1z M36,15h1v1h-1z M38,15h1v1h-1z M40,15h1v1h-1z M44,15h1v1h-1z M45,15h1v1h-1z M46,15h1v1h-1z M51,15h1v1h-1z M52,15h1v1h-1z M8,16h1v1h-1z M10,16h1v1h-1z M11,16h1v1h-1z M13,16h1v1h-1z M17,16h1v1h-1z M21,16h1v1h-1z M22,16h1v1h-1z M23,16h1v1h-1z M25,16h1v1h-1z M26,16h1v1h-1z M27,16h1v1h-1z M28,16h1v1h-1z M30,16h1v1h-1z M34,16h1v1h-1z M37,16h1v1h-1z M39,16h1v1h-1z M40,16h1v1h-1z M44,16h1v1h-1z M46,16h1v1h-1z M47,16h1v1h-1z M50,16h1v1h-1z M52,16h1v1h-1z M5,17h1v1h-1z M9,17h1v1h-1z M11,17h1v1h-1z M12,17h1v1h-1z M13,17h1v1h-1z M15,17h1v1h-1z M16,17h1v1h-1z M18,17h1v1h-1z M20,17h1v1h-1z M21,17h1v1h-1z M22,17h1v1h-1z M25,17h1v1h-1z M27,17h1v1h-1z M28,17h1v1h-1z M29,17h1v1h-1z M32,17h1v1h-1z M33,17h1v1h-1z M34,17h1v1h-1z M36,17h1v1h-1z M39,17h1v1h-1z M41,17h1v1h-1z M43,17h1v1h-1z M45,17h1v1h-1z M46,17h1v1h-1z M47,17h1v1h-1z M48,17h1v1h-1z M51,17h1v1h-1z M5,18h1v1h-1z M7,18h1v1h-1z M8,18h1v1h-1z M9,18h1v1h-1z M10,18h1v1h-1z M11,18h1v1h-1z M12,18h1v1h-1z M13,18h1v1h-1z M14,18h1v1h-1z M15,18h1v1h-1z M16,18h1v1h-1z M20,18h1v1h-1z M23,18h1v1h-1z M31,18h1v1h-1z M37,18h1v1h-1z M38,18h1v1h-1z M39,18h1v1h-1z M43,18h1v1h-1z M44,18h1v1h-1z M51,18h1v1h-1z M52,18h1v1h-1z M4,19h1v1h-1z M5,19h1v1h-1z M6,19h1v1h-1z M13,19h1v1h-1z M14,19h1v1h-1z M16,19h1v1h-1z M18,19h1v1h-1z M21,19h1v1h-1z M22,19h1v1h-1z M25,19h1v1h-1z M27,19h1v1h-1z M34,19h1v1h-1z M35,19h1v1h-1z M37,19h1v1h-1z M39,19h1v1h-1z M40,19h1v1h-1z M43,19h1v1h-1z M45,19h1v1h-1z M48,19h1v1h-1z M51,19h1v1h-1z M7,20h1v1h-1z M8,20h1v1h-1z M10,20h1v1h-1z M14,20h1v1h-1z M18,20h1v1h-1z M19,20h1v1h-1z M21,20h1v1h-1z M22,20h1v1h-1z M23,20h1v1h-1z M24,20h1v1h-1z M28,20h1v1h-1z M29,20h1v1h-1z M31,20h1v1h-1z M33,20h1v1h-1z M34,20h1v1h-1z M40,20h1v1h-1z M41,20h1v1h-1z M44,20h1v1h-1z M50,20h1v1h-1z M51,20h1v1h-1z M5,21h1v1h-1z M6,21h1v1h-1z M7,21h1v1h-1z M8,21h1v1h-1z M9,21h1v1h-1z M12,21h1v1h-1z M15,21h1v1h-1z M17,21h1v1h-1z M19,21h1v1h-1z M20,21h1v1h-1z M21,21h1v1h-1z M27,21h1v1h-1z M34,21h1v1h-1z M35,21h1v1h-1z M37,21h1v1h-1z M39,21h1v1h-1z M40,21h1v1h-1z M43,21h1v1h-1z M45,21h1v1h-1z M46,21h1v1h-1z M47,21h1v1h-1z M5,22h1v1h-1z M6,22h1v1h-1z M7,22h1v1h-1z M8,22h1v1h-1z M9,22h1v1h-1z M10,22h1v1h-1z M12,22h1v1h-1z M13,22h1v1h-1z M15,22h1v1h-1z M16,22h1v1h-1z M17,22h1v1h-1z M18,22h1v1h-1z M20,22h1v1h-1z M22,22h1v1h-1z M23,22h1v1h-1z M28,22h1v1h-1z M30,22h1v1h-1z M31,22h1v1h-1z M33,22h1v1h-1z M34,22h1v1h-1z M40,22h1v1h-1z M41,22h1v1h-1z M47,22h1v1h-1z M49,22h1v1h-1z M51,22h1v1h-1z M52,22h1v1h-1z M4,23h1v1h-1z M7,23h1v1h-1z M9,23h1v1h-1z M12,23h1v1h-1z M15,23h1v1h-1z M16,23h1v1h-1z M17,23h1v1h-1z M19,23h1v1h-1z M20,23h1v1h-1z M21,23h1v1h-1z M23,23h1v1h-1z M24,23h1v1h-1z M25,23h1v1h-1z M31,23h1v1h-1z M35,23h1v1h-1z M36,23h1v1h-1z M37,23h1v1h-1z M41,23h1v1h-1z M44,23h1v1h-1z M45,23h1v1h-1z M47,23h1v1h-1z M48,23h1v1h-1z M52,23h1v1h-1z M5,24h1v1h-1z M7,24h1v1h-1z M8,24h1v1h-1z M10,24h1v1h-1z M13,24h1v1h-1z M15,24h1v1h-1z M17,24h1v1h-1z M21,24h1v1h-1z M22,24h1v1h-1z M23,24h1v1h-1z M24,24h1v1h-1z M25,24h1v1h-1z M26,24h1v1h-1z M27,24h1v1h-1z M28,24h1v1h-1z M29,24h1v1h-1z M33,24h1v1h-1z M34,24h1v1h-1z M35,24h1v1h-1z M38,24h1v1h-1z M39,24h1v1h-1z M40,24h1v1h-1z M43,24h1v1h-1z M44,24h1v1h-1z M45,24h1v1h-1z M46,24h1v1h-1z M47,24h1v1h-1z M50,24h1v1h-1z M52,24h1v1h-1z M4,25h1v1h-1z M5,25h1v1h-1z M8,25h1v1h-1z M9,25h1v1h-1z M11,25h1v1h-1z M12,25h1v1h-1z M14,25h1v1h-1z M19,25h1v1h-1z M20,25h1v1h-1z M22,25h1v1h-1z M23,25h1v1h-1z M27,25h1v1h-1z M31,25h1v1h-1z M33,25h1v1h-1z M34,25h1v1h-1z M35,25h1v1h-1z M41,25h1v1h-1z M43,25h1v1h-1z M45,25h1v1h-1z M46,25h1v1h-1z M47,25h1v1h-1z M50,25h1v1h-1z M5,26h1v1h-1z M6,26h1v1h-1z M7,26h1v1h-1z M8,26h1v1h-1z M9,26h1v1h-1z M10,26h1v1h-1z M11,26h1v1h-1z M12,26h1v1h-1z M15,26h1v1h-1z M16,26h1v1h-1z M18,26h1v1h-1z M19,26h1v1h-1z M21,26h1v1h-1z M23,26h1v1h-1z M24,26h1v1h-1z M25,26h1v1h-1z M26,26h1v1h-1z M27,26h1v1h-1z M28,26h1v1h-1z M29,26h1v1h-1z M30,26h1v1h-1z M31,26h1v1h-1z M32,26h1v1h-1z M34,26h1v1h-1z M36,26h1v1h-1z M37,26h1v1h-1z M39,26h1v1h-1z M40,26h1v1h-1z M42,26h1v1h-1z M44,26h1v1h-1z M45,26h1v1h-1z M46,26h1v1h-1z M47,26h1v1h-1z M48,26h1v1h-1z M51,26h1v1h-1z M52,26h1v1h-1z M5,27h1v1h-1z M6,27h1v1h-1z M8,27h1v1h-1z M12,27h1v1h-1z M13,27h1v1h-1z M14,27h1v1h-1z M17,27h1v1h-1z M19,27h1v1h-1z M21,27h1v1h-1z M22,27h1v1h-1z M26,27h1v1h-1z M30,27h1v1h-1z M31,27h1v1h-1z M34,27h1v1h-1z M35,27h1v1h-1z M38,27h1v1h-1z M44,27h1v1h-1z M48,27h1v1h-1z M51,27h1v1h-1z M52,27h1v1h-1z M4,28h1v1h-1z M5,28h1v1h-1z M6,28h1v1h-1z M8,28h1v1h-1z M10,28h1v1h-1z M12,28h1v1h-1z M13,28h1v1h-1z M15,28h1v1h-1z M16,28h1v1h-1z M19,28h1v1h-1z M20,28h1v1h-1z M21,28h1v1h-1z M24,28h1v1h-1z M25,28h1v1h-1z M26,28h1v1h-1z M28,28h1v1h-1z M30,28h1v1h-1z M33,28h1v1h-1z M35,28h1v1h-1z M39,28h1v1h-1z M40,28h1v1h-1z M41,28h1v1h-1z M42,28h1v1h-1z M44,28h1v1h-1z M46,28h1v1h-1z M48,28h1v1h-1z M50,28h1v1h-1z M51,28h1v1h-1z M52,28h1v1h-1z M6,29h1v1h-1z M8,29h1v1h-1z M12,29h1v1h-1z M13,29h1v1h-1z M17,29h1v1h-1z M18,29h1v1h-1z M19,29h1v1h-1z M20,29h1v1h-1z M21,29h1v1h-1z M22,29h1v1h-1z M23,29h1v1h-1z M25,29h1v1h-1z M26,29h1v1h-1z M30,29h1v1h-1z M33,29h1v1h-1z M34,29h1v1h-1z M35,29h1v1h-1z M41,29h1v1h-1z M44,29h1v1h-1z M48,29h1v1h-1z M49,29h1v1h-1z M4,30h1v1h-1z M6,30h1v1h-1z M7,30h1v1h-1z M8,30h1v1h-1z M9,30h1v1h-1z M10,30h1v1h-1z M11,30h1v1h-1z M12,30h1v1h-1z M13,30h1v1h-1z M18,30h1v1h-1z M19,30h1v1h-1z M26,30h1v1h-1z M27,30h1v1h-1z M28,30h1v1h-1z M29,30h1v1h-1z M30,30h1v1h-1z M34,30h1v1h-1z M36,30h1v1h-1z M40,30h1v1h-1z M42,30h1v1h-1z M43,30h1v1h-1z M44,30h1v1h-1z M45,30h1v1h-1z M46,30h1v1h-1z M47,30h1v1h-1z M48,30h1v1h-1z M49,30h1v1h-1z M50,30h1v1h-1z M51,30h1v1h-1z M52,30h1v1h-1z M4,31h1v1h-1z M5,31h1v1h-1z M6,31h1v1h-1z M11,31h1v1h-1z M12,31h1v1h-1z M15,31h1v1h-1z M19,31h1v1h-1z M21,31h1v1h-1z M22,31h1v1h-1z M27,31h1v1h-1z M29,31h1v1h-1z M32,31h1v1h-1z M33,31h1v1h-1z M35,31h1v1h-1z M36,31h1v1h-1z M42,31h1v1h-1z M43,31h1v1h-1z M46,31h1v1h-1z M47,31h1v1h-1z M49,31h1v1h-1z M52,31h1v1h-1z M4,32h1v1h-1z M7,32h1v1h-1z M8,32h1v1h-1z M9,32h1v1h-1z M10,32h1v1h-1z M12,32h1v1h-1z M13,32h1v1h-1z M14,32h1v1h-1z M16,32h1v1h-1z M17,32h1v1h-1z M18,32h1v1h-1z M19,32h1v1h-1z M25,32h1v1h-1z M27,32h1v1h-1z M28,32h1v1h-1z M29,32h1v1h-1z M30,32h1v1h-1z M33,32h1v1h-1z M34,32h1v1h-1z M38,32h1v1h-1z M40,32h1v1h-1z M41,32h1v1h-1z M43,32h1v1h-1z M45,32h1v1h-1z M48,32h1v1h-1z M50,32h1v1h-1z M4,33h1v1h-1z M5,33h1v1h-1z M8,33h1v1h-1z M12,33h1v1h-1z M14,33h1v1h-1z M19,33h1v1h-1z M20,33h1v1h-1z M22,33h1v1h-1z M23,33h1v1h-1z M24,33h1v1h-1z M25,33h1v1h-1z M26,33h1v1h-1z M28,33h1v1h-1z M29,33h1v1h-1z M31,33h1v1h-1z M32,33h1v1h-1z M34,33h1v1h-1z M35,33h1v1h-1z M40,33h1v1h-1z M41,33h1v1h-1z M43,33h1v1h-1z M45,33h1v1h-1z M46,33h1v1h-1z M47,33h1v1h-1z M49,33h1v1h-1z M4,34h1v1h-1z M7,34h1v1h-1z M8,34h1v1h-1z M10,34h1v1h-1z M11,34h1v1h-1z M12,34h1v1h-1z M13,34h1v1h-1z M15,34h1v1h-1z M19,34h1v1h-1z M21,34h1v1h-1z M24,34h1v1h-1z M26,34h1v1h-1z M27,34h1v1h-1z M28,34h1v1h-1z M29,34h1v1h-1z M31,34h1v1h-1z M32,34h1v1h-1z M33,34h1v1h-1z M35,34h1v1h-1z M37,34h1v1h-1z M38,34h1v1h-1z M40,34h1v1h-1z M43,34h1v1h-1z M44,34h1v1h-1z M46,34h1v1h-1z M47,34h1v1h-1z M48,34h1v1h-1z M49,34h1v1h-1z M50,34h1v1h-1z M51,34h1v1h-1z M52,34h1v1h-1z M4,35h1v1h-1z M6,35h1v1h-1z M9,35h1v1h-1z M11,35h1v1h-1z M14,35h1v1h-1z M15,35h1v1h-1z M16,35h1v1h-1z M18,35h1v1h-1z M20,35h1v1h-1z M23,35h1v1h-1z M24,35h1v1h-1z M26,35h1v1h-1z M28,35h1v1h-1z M30,35h1v1h-1z M31,35h1v1h-1z M33,35h1v1h-1z M38,35h1v1h-1z M40,35h1v1h-1z M41,35h1v1h-1z M42,35h1v1h-1z M45,35h1v1h-1z M47,35h1v1h-1z M48,35h1v1h-1z M51,35h1v1h-1z M9,36h1v1h-1z M10,36h1v1h-1z M11,36h1v1h-1z M14,36h1v1h-1z M15,36h1v1h-1z M20,36h1v1h-1z M21,36h1v1h-1z M23,36h1v1h-1z M24,36h1v1h-1z M26,36h1v1h-1z M29,36h1v1h-1z M32,36h1v1h-1z M35,36h1v1h-1z M36,36h1v1h-1z M37,36h1v1h-1z M38,36h1v1h-1z M39,36h1v1h-1z M42,36h1v1h-1z M43,36h1v1h-1z M44,36h1v1h-1z M49,36h1v1h-1z M50,36h1v1h-1z M4,37h1v1h-1z M5,37h1v1h-1z M6,37h1v1h-1z M11,37h1v1h-1z M15,37h1v1h-1z M18,37h1v1h-1z M19,37h1v1h-1z M27,37h1v1h-1z M28,37h1v1h-1z M29,37h1v1h-1z M31,37h1v1h-1z M32,37h1v1h-1z M33,37h1v1h-1z M36,37h1v1h-1z M38,37h1v1h-1z M41,37h1v1h-1z M42,37h1v1h-1z M43,37h1v1h-1z M44,37h1v1h-1z M46,37h1v1h-1z M47,37h1v1h-1z M49,37h1v1h-1z M51,37h1v1h-1z M4,38h1v1h-1z M5,38h1v1h-1z M6,38h1v1h-1z M10,38h1v1h-1z M12,38h1v1h-1z M13,38h1v1h-1z M14,38h1v1h-1z M18,38h1v1h-1z M19,38h1v1h-1z M21,38h1v1h-1z M22,38h1v1h-1z M23,38h1v1h-1z M24,38h1v1h-1z M25,38h1v1h-1z M26,38h1v1h-1z M28,38h1v1h-1z M29,38h1v1h-1z M32,38h1v1h-1z M34,38h1v1h-1z M35,38h1v1h-1z M36,38h1v1h-1z M37,38h1v1h-1z M39,38h1v1h-1z M43,38h1v1h-1z M46,38h1v1h-1z M47,38h1v1h-1z M49,38h1v1h-1z M51,38h1v1h-1z M52,38h1v1h-1z M5,39h1v1h-1z M8,39h1v1h-1z M9,39h1v1h-1z M11,39h1v1h-1z M12,39h1v1h-1z M13,39h1v1h-1z M16,39h1v1h-1z M17,39h1v1h-1z M18,39h1v1h-1z M20,39h1v1h-1z M21,39h1v1h-1z M22,39h1v1h-1z M25,39h1v1h-1z M27,39h1v1h-1z M28,39h1v1h-1z M29,39h1v1h-1z M31,39h1v1h-1z M33,39h1v1h-1z M36,39h1v1h-1z M38,39h1v1h-1z M41,39h1v1h-1z M42,39h1v1h-1z M44,39h1v1h-1z M45,39h1v1h-1z M6,40h1v1h-1z M7,40h1v1h-1z M8,40h1v1h-1z M9,40h1v1h-1z M10,40h1v1h-1z M13,40h1v1h-1z M14,40h1v1h-1z M17,40h1v1h-1z M19,40h1v1h-1z M20,40h1v1h-1z M21,40h1v1h-1z M22,40h1v1h-1z M23,40h1v1h-1z M24,40h1v1h-1z M25,40h1v1h-1z M26,40h1v1h-1z M27,40h1v1h-1z M29,40h1v1h-1z M35,40h1v1h-1z M40,40h1v1h-1z M41,40h1v1h-1z M42,40h1v1h-1z M43,40h1v1h-1z M44,40h1v1h-1z M46,40h1v1h-1z M48,40h1v1h-1z M49,40h1v1h-1z M50,40h1v1h-1z M51,40h1v1h-1z M52,40h1v1h-1z M9,41h1v1h-1z M13,41h1v1h-1z M14,41h1v1h-1z M15,41h1v1h-1z M18,41h1v1h-1z M19,41h1v1h-1z M21,41h1v1h-1z M23,41h1v1h-1z M25,41h1v1h-1z M26,41h1v1h-1z M28,41h1v1h-1z M30,41h1v1h-1z M32,41h1v1h-1z M33,41h1v1h-1z M34,41h1v1h-1z M36,41h1v1h-1z M39,41h1v1h-1z M41,41h1v1h-1z M44,41h1v1h-1z M45,41h1v1h-1z M47,41h1v1h-1z M49,41h1v1h-1z M51,41h1v1h-1z M5,42h1v1h-1z M9,42h1v1h-1z M10,42h1v1h-1z M13,42h1v1h-1z M14,42h1v1h-1z M16,42h1v1h-1z M17,42h1v1h-1z M18,42h1v1h-1z M21,42h1v1h-1z M22,42h1v1h-1z M23,42h1v1h-1z M28,42h1v1h-1z M29,42h1v1h-1z M31,42h1v1h-1z M34,42h1v1h-1z M37,42h1v1h-1z M40,42h1v1h-1z M41,42h1v1h-1z M42,42h1v1h-1z M45,42h1v1h-1z M46,42h1v1h-1z M49,42h1v1h-1z M51,42h1v1h-1z M52,42h1v1h-1z M5,43h1v1h-1z M6,43h1v1h-1z M7,43h1v1h-1z M22,43h1v1h-1z M24,43h1v1h-1z M25,43h1v1h-1z M26,43h1v1h-1z M27,43h1v1h-1z M28,43h1v1h-1z M30,43h1v1h-1z M31,43h1v1h-1z M34,43h1v1h-1z M39,43h1v1h-1z M41,43h1v1h-1z M47,43h1v1h-1z M48,43h1v1h-1z M51,43h1v1h-1z M4,44h1v1h-1z M5,44h1v1h-1z M6,44h1v1h-1z M10,44h1v1h-1z M11,44h1v1h-1z M12,44h1v1h-1z M15,44h1v1h-1z M16,44h1v1h-1z M19,44h1v1h-1z M21,44h1v1h-1z M22,44h1v1h-1z M23,44h1v1h-1z M24,44h1v1h-1z M26,44h1v1h-1z M27,44h1v1h-1z M28,44h1v1h-1z M29,44h1v1h-1z M30,44h1v1h-1z M33,44h1v1h-1z M34,44h1v1h-1z M35,44h1v1h-1z M37,44h1v1h-1z M39,44h1v1h-1z M40,44h1v1h-1z M41,44h1v1h-1z M43,44h1v1h-1z M44,44h1v1h-1z M45,44h1v1h-1z M46,44h1v1h-1z M47,44h1v1h-1z M48,44h1v1h-1z M49,44h1v1h-1z M50,44h1v1h-1z M52,44h1v1h-1z M12,45h1v1h-1z M13,45h1v1h-1z M16,45h1v1h-1z M18,45h1v1h-1z M19,45h1v1h-1z M20,45h1v1h-1z M21,45h1v1h-1z M22,45h1v1h-1z M26,45h1v1h-1z M30,45h1v1h-1z M32,45h1v1h-1z M33,45h1v1h-1z M34,45h1v1h-1z M39,45h1v1h-1z M41,45h1v1h-1z M43,45h1v1h-1z M44,45h1v1h-1z M48,45h1v1h-1z M50,45h1v1h-1z M51,45h1v1h-1z M4,46h1v1h-1z M5,46h1v1h-1z M6,46h1v1h-1z M7,46h1v1h-1z M8,46h1v1h-1z M9,46h1v1h-1z M10,46h1v1h-1z M13,46h1v1h-1z M14,46h1v1h-1z M15,46h1v1h-1z M16,46h1v1h-1z M17,46h1v1h-1z M20,46h1v1h-1z M21,46h1v1h-1z M22,46h1v1h-1z M25,46h1v1h-1z M26,46h1v1h-1z M28,46h1v1h-1z M30,46h1v1h-1z M31,46h1v1h-1z M33,46h1v1h-1z M34,46h1v1h-1z M36,46h1v1h-1z M37,46h1v1h-1z M40,46h1v1h-1z M42,46h1v1h-1z M44,46h1v1h-1z M46,46h1v1h-1z M48,46h1v1h-1z M51,46h1v1h-1z M52,46h1v1h-1z M4,47h1v1h-1z M10,47h1v1h-1z M12,47h1v1h-1z M15,47h1v1h-1z M16,47h1v1h-1z M17,47h1v1h-1z M18,47h1v1h-1z M20,47h1v1h-1z M21,47h1v1h-1z M23,47h1v1h-1z M25,47h1v1h-1z M26,47h1v1h-1z M30,47h1v1h-1z M32,47h1v1h-1z M33,47h1v1h-1z M36,47h1v1h-1z M38,47h1v1h-1z M39,47h1v1h-1z M41,47h1v1h-1z M42,47h1v1h-1z M43,47h1v1h-1z M44,47h1v1h-1z M48,47h1v1h-1z M51,47h1v1h-1z M52,47h1v1h-1z M4,48h1v1h-1z M6,48h1v1h-1z M7,48h1v1h-1z M8,48h1v1h-1z M10,48h1v1h-1z M12,48h1v1h-1z M13,48h1v1h-1z M14,48h1v1h-1z M18,48h1v1h-1z M22,48h1v1h-1z M23,48h1v1h-1z M26,48h1v1h-1z M27,48h1v1h-1z M28,48h1v1h-1z M29,48h1v1h-1z M30,48h1v1h-1z M31,48h1v1h-1z M33,48h1v1h-1z M34,48h1v1h-1z M38,48h1v1h-1z M39,48h1v1h-1z M40,48h1v1h-1z M42,48h1v1h-1z M44,48h1v1h-1z M45,48h1v1h-1z M46,48h1v1h-1z M47,48h1v1h-1z M48,48h1v1h-1z M49,48h1v1h-1z M51,48h1v1h-1z M52,48h1v1h-1z M4,49h1v1h-1z M6,49h1v1h-1z M7,49h1v1h-1z M8,49h1v1h-1z M10,49h1v1h-1z M12,49h1v1h-1z M14,49h1v1h-1z M16,49h1v1h-1z M21,49h1v1h-1z M22,49h1v1h-1z M25,49h1v1h-1z M26,49h1v1h-1z M29,49h1v1h-1z M30,49h1v1h-1z M32,49h1v1h-1z M33,49h1v1h-1z M34,49h1v1h-1z M35,49h1v1h-1z M40,49h1v1h-1z M41,49h1v1h-1z M44,49h1v1h-1z M45,49h1v1h-1z M46,49h1v1h-1z M47,49h1v1h-1z M48,49h1v1h-1z M49,49h1v1h-1z M50,49h1v1h-1z M51,49h1v1h-1z M4,50h1v1h-1z M6,50h1v1h-1z M7,50h1v1h-1z M8,50h1v1h-1z M10,50h1v1h-1z M12,50h1v1h-1z M13,50h1v1h-1z M14,50h1v1h-1z M15,50h1v1h-1z M20,50h1v1h-1z M23,50h1v1h-1z M27,50h1v1h-1z M28,50h1v1h-1z M30,50h1v1h-1z M31,50h1v1h-1z M33,50h1v1h-1z M34,50h1v1h-1z M35,50h1v1h-1z M38,50h1v1h-1z M39,50h1v1h-1z M40,50h1v1h-1z M43,50h1v1h-1z M45,50h1v1h-1z M46,50h1v1h-1z M47,50h1v1h-1z M51,50h1v1h-1z M52,50h1v1h-1z M4,51h1v1h-1z M10,51h1v1h-1z M13,51h1v1h-1z M14,51h1v1h-1z M20,51h1v1h-1z M22,51h1v1h-1z M25,51h1v1h-1z M27,51h1v1h-1z M28,51h1v1h-1z M29,51h1v1h-1z M30,51h1v1h-1z M34,51h1v1h-1z M35,51h1v1h-1z M37,51h1v1h-1z M39,51h1v1h-1z M40,51h1v1h-1z M44,51h1v1h-1z M46,51h1v1h-1z M47,51h1v1h-1z M52,51h1v1h-1z M4,52h1v1h-1z M5,52h1v1h-1z M6,52h1v1h-1z M7,52h1v1h-1z M8,52h1v1h-1z M9,52h1v1h-1z M10,52h1v1h-1z M12,52h1v1h-1z M13,52h1v1h-1z M15,52h1v1h-1z M16,52h1v1h-1z M18,52h1v1h-1z M19,52h1v1h-1z M23,52h1v1h-1z M24,52h1v1h-1z M27,52h1v1h-1z M28,52h1v1h-1z M31,52h1v1h-1z M33,52h1v1h-1z M34,52h1v1h-1z M40,52h1v1h-1z M41,52h1v1h-1z M43,52h1v1h-1z M49,52h1v1h-1z M50,52h1v1h-1z M51,52h1v1h-1z M52,52h1v1h-1z" fill="#000000"/>
	</g>
</svg>
